<?xml version="1.0" encoding="iso-8859-1"?>
<!-- Uploaded to: SVG Repo, www.svgrepo.com, Generator: SVG Repo Mixer Tools -->
<svg height="800px" width="800px" version="1.1" id="Layer_1" xmlns="http://www.w3.org/2000/svg" xmlns:xlink="http://www.w3.org/1999/xlink" 
	 viewBox="0 0 512 512" xml:space="preserve">
<path style="fill:#64666D;" d="M492.434,65.767l-37.668-37.668c-1.6-1.6-3.771-2.499-6.034-2.499H25.6
	c-4.713,0-8.533,3.821-8.533,8.533v469.333c0,4.713,3.821,8.533,8.533,8.533h460.8c4.713,0,8.533-3.821,8.533-8.533V71.802
	C494.933,69.538,494.034,67.367,492.434,65.767z M460.8,435.2c0,4.713-3.821,8.533-8.533,8.533h-25.6
	c-4.713,0-8.533-3.821-8.533-8.533v-25.6c0-4.713,3.821-8.533,8.533-8.533h25.6c4.713,0,8.533,3.821,8.533,8.533V435.2z"/>
<path style="fill:#4E5058;" d="M34.133,503.467V34.133c0-4.713,3.821-8.533,8.533-8.533H25.6c-4.713,0-8.533,3.821-8.533,8.533
	v469.333c0,4.713,3.821,8.533,8.533,8.533h17.067C37.954,512,34.133,508.179,34.133,503.467z"/>
<g>
	<path style="fill:#A7A7AB;" d="M375.467,0H136.533C131.821,0,128,3.821,128,8.533v187.733c0,4.713,3.821,8.533,8.533,8.533h238.933
		c4.713,0,8.533-3.821,8.533-8.533V8.533C384,3.821,380.179,0,375.467,0z M341.333,179.2h-68.267c-4.713,0-8.533-3.821-8.533-8.533
		V34.133c0-4.713,3.821-8.533,8.533-8.533h68.267c4.713,0,8.533,3.821,8.533,8.533v136.533
		C349.867,175.379,346.046,179.2,341.333,179.2z"/>
	<path style="fill:#A7A7AB;" d="M145.067,196.267V8.533c0-4.713,3.821-8.533,8.533-8.533h-17.067C131.821,0,128,3.821,128,8.533
		v187.733c0,4.713,3.821,8.533,8.533,8.533H153.6C148.887,204.8,145.067,200.979,145.067,196.267z"/>
</g>
<path style="fill:#909296;" d="M281.6,170.667V34.133c0-4.713,3.821-8.533,8.533-8.533h-17.067c-4.713,0-8.533,3.821-8.533,8.533
	v136.533c0,4.713,3.821,8.533,8.533,8.533h17.067C285.421,179.2,281.6,175.379,281.6,170.667z"/>
<path style="fill:#E9E9EA;" d="M384,486.4H85.333c-9.426,0-17.067-7.641-17.067-17.067V310.4c0-9.426,7.641-17.067,17.067-17.067
	H384c9.426,0,17.067,7.641,17.067,17.067v158.933C401.067,478.759,393.426,486.4,384,486.4z"/>
<path style="fill:#D3D3D5;" d="M85.333,469.333V314.667c0-9.426,7.641-17.067,17.067-17.067H85.333
	c-9.426,0-17.067,7.641-17.067,17.067v154.667c0,9.425,7.641,17.067,17.067,17.067H102.4
	C92.974,486.4,85.333,478.758,85.333,469.333z"/>
<path style="fill:#FD5E95;" d="M401.067,247.467c0-9.426-7.641-17.067-17.067-17.067H85.333c-9.426,0-17.067,7.641-17.067,17.067
	v68.267h332.8V247.467z"/>
<path style="fill:#D14D7B;" d="M102.4,230.4H85.333c-9.426,0-17.067,7.641-17.067,17.067v68.267h17.067v-68.267
	C85.333,238.041,92.974,230.4,102.4,230.4z"/>
<g>
	<path style="fill:#BDBDC0;" d="M332.8,366.933H136.533c-4.713,0-8.533-3.821-8.533-8.533s3.821-8.533,8.533-8.533H332.8
		c4.713,0,8.533,3.821,8.533,8.533S337.513,366.933,332.8,366.933z"/>
	<path style="fill:#BDBDC0;" d="M332.8,401.067H136.533c-4.713,0-8.533-3.821-8.533-8.533s3.821-8.533,8.533-8.533H332.8
		c4.713,0,8.533,3.821,8.533,8.533S337.513,401.067,332.8,401.067z"/>
	<path style="fill:#BDBDC0;" d="M332.8,435.2H136.533c-4.713,0-8.533-3.821-8.533-8.533s3.821-8.533,8.533-8.533H332.8
		c4.713,0,8.533,3.821,8.533,8.533S337.513,435.2,332.8,435.2z"/>
</g>
</svg>