<svg xmlns="http://www.w3.org/2000/svg"  viewBox="0 0 26 26" width="26px" height="26px"><path d="M 13 0.1875 C 5.925781 0.1875 0.1875 5.925781 0.1875 13 C 0.1875 20.074219 5.925781 25.8125 13 25.8125 C 20.074219 25.8125 25.8125 20.074219 25.8125 13 C 25.8125 5.925781 20.074219 0.1875 13 0.1875 Z M 11.9375 2.75 C 12.007813 2.742188 12.085938 2.753906 12.15625 2.75 C 11.972656 2.957031 11.875 3.222656 11.875 3.5 L 11.875 4 C 11.875 4.621094 12.378906 5.125 13 5.125 C 13.621094 5.125 14.125 4.621094 14.125 4 L 14.125 3.5 C 14.125 3.222656 14.027344 2.957031 13.84375 2.75 C 18.863281 3.15625 22.84375 7.136719 23.25 12.15625 C 23.042969 11.972656 22.777344 11.875 22.5 11.875 L 22 11.875 C 21.957031 11.871094 21.917969 11.871094 21.875 11.875 C 21.253906 11.910156 20.777344 12.441406 20.8125 13.0625 C 20.847656 13.683594 21.378906 14.160156 22 14.125 L 22.5 14.125 C 22.777344 14.125 23.042969 14.027344 23.25 13.84375 C 22.84375 18.863281 18.863281 22.84375 13.84375 23.25 C 14.027344 23.042969 14.125 22.777344 14.125 22.5 L 14.125 22 C 14.132813 21.652344 13.984375 21.320313 13.714844 21.101563 C 13.445313 20.878906 13.089844 20.796875 12.75 20.875 C 12.226563 20.992188 11.859375 21.464844 11.875 22 L 11.875 22.5 C 11.875 22.777344 11.972656 23.042969 12.15625 23.25 C 7.148438 22.84375 3.167969 18.878906 2.75 13.875 C 2.960938 14.046875 3.226563 14.136719 3.5 14.125 L 4 14.125 C 4.621094 14.125 5.125 13.621094 5.125 13 C 5.125 12.378906 4.621094 11.875 4 11.875 L 3.5 11.875 C 3.457031 11.871094 3.417969 11.871094 3.375 11.875 C 3.148438 11.882813 2.933594 11.960938 2.75 12.09375 C 3.175781 7.175781 7.039063 3.25 11.9375 2.75 Z M 13 6.0625 C 12.546875 6.0625 12.359375 6.457031 12.34375 6.6875 L 12.09375 11.71875 C 11.695313 12.003906 11.4375 12.472656 11.4375 13 C 11.4375 13.867188 12.132813 14.5625 13 14.5625 C 13.054688 14.5625 13.101563 14.535156 13.15625 14.53125 L 16.21875 17.25 C 16.390625 17.402344 16.824219 17.519531 17.1875 17.15625 C 17.550781 16.792969 17.429688 16.363281 17.28125 16.1875 L 14.5625 13.0625 C 14.5625 13.042969 14.5625 13.019531 14.5625 13 C 14.5625 12.445313 14.277344 11.96875 13.84375 11.6875 L 13.65625 6.6875 C 13.644531 6.457031 13.449219 6.0625 13 6.0625 Z"/></svg>